<?xml version="1.0" encoding="utf-8"?>
<!-- Generator: Adobe Illustrator 19.1.0, SVG Export Plug-In . SVG Version: 6.00 Build 0)  -->
<svg version="1.1" id="Layer_1" xmlns="http://www.w3.org/2000/svg" xmlns:xlink="http://www.w3.org/1999/xlink" x="0px" y="0px"
	 viewBox="0 0 300 91.7" style="enable-background:new 0 0 300 91.7;" xml:space="preserve">
<g>
	<path style="fill:#F1F1F1;" d="M28.1,9.9C8.3,17.1-2,39.1,5.2,58.9c7.2,19.9,29.2,30.1,49,22.9c19.9-7.2,30.1-29.2,22.9-49
		C69.9,12.9,48,2.7,28.1,9.9z M30.4,16.4c8.9-3.2,18.3-2.2,25.9,2L11.8,34.7C15,26.5,21.5,19.6,30.4,16.4z M9.9,42.3l52.8-19.2
		c2.7,2.6,5,5.7,6.7,9.2L10.7,53.7C9.7,49.9,9.5,46.1,9.9,42.3z M51.9,75.5c-8.7,3.2-17.8,2.2-25.4-1.8l30.3-11v-7L19.9,69
		c-2.8-2.6-5.2-5.6-6.9-9.2l58.7-21.4C75.4,53.9,67.1,69.9,51.9,75.5z"/>
	<g>
		<path style="fill:#F1F1F1;" d="M138.8,40.4v5.1c-2.4,1.3-5.7,2.4-9.9,2.4c-5.2,0-12.2-2.1-12.2-13.2c0-7.8,3.2-13.9,11.7-13.9
			c8.2,0,11.7,6.2,11.7,12.7c0,1.2,0,2.2-0.1,3.3h-16.9c0.4,5,3.6,5.7,6.7,5.7C133.6,42.5,136.6,41.5,138.8,40.4z M123.2,32.4h10.6
			c-0.3-3.3-1.9-6.5-5.3-6.5C125.4,25.9,123.6,27.7,123.2,32.4z"/>
		<path style="fill:#F1F1F1;" d="M165.7,31.7v15.8h-6.3V31.2c0-2.3-0.5-4.8-6.2-4.8c-1.8,0-3.5-0.2-4.9,0.1v21h-6.3V21.2
			c0.2-0.1,5.4-0.4,12-0.4C161.4,20.8,165.7,24.9,165.7,31.7z"/>
		<path style="fill:#F1F1F1;" d="M195.5,12.4v35.1h-6.3V32.9h-14.9v14.6H168V12.4h6.3V27h14.9V12.4H195.5z"/>
		<path style="fill:#F1F1F1;" d="M222.1,34.4c0,8.7-4.4,13.5-12.4,13.5c-8,0-12.4-4.8-12.4-13.5c0-8.7,4.4-13.5,12.4-13.5
			C217.7,20.9,222.1,25.7,222.1,34.4z M215.8,34.4c0-6.9-2.4-8.3-6.1-8.3c-3.7,0-6.1,1.4-6.1,8.3s2.4,8.3,6.1,8.3
			C213.4,42.7,215.8,41.3,215.8,34.4z"/>
		<path style="fill:#F1F1F1;" d="M223.7,47.5V11.3h6.3v36.2L223.7,47.5L223.7,47.5z"/>
		<path style="fill:#F1F1F1;" d="M278.1,40.4v5.1c-2.4,1.3-5.7,2.4-9.9,2.4c-5.2,0-12.2-2.1-12.2-13.2c0-7.8,3.2-13.9,11.7-13.9
			c8.2,0,11.7,6.2,11.7,12.7c0,1.2,0,2.2-0.1,3.3h-16.9c0.4,5,3.6,5.7,6.7,5.7C272.9,42.5,275.9,41.5,278.1,40.4z M262.5,32.4h10.6
			c-0.3-3.3-1.9-6.5-5.3-6.5C264.6,25.9,262.9,27.7,262.5,32.4z"/>
		<path style="fill:#F1F1F1;" d="M243.6,47.8L243.6,47.8c0,0,0.1,0,0.2,0c0,0,0,0,0,0c0,0,0,0,0,0c6.5,0,10.7-0.3,10.7-0.4V39v-1.4
			l0-26.4h-6.3v10c-1.5-0.3-2.6-0.5-4.1-0.5c-7.8,0-12.4,4.7-12.4,13.3C231.7,46.2,239.9,47.8,243.6,47.8z M244.4,26
			c1.5,0,2.6,0.1,3.7,0.3c0,0,0,13.6,0,13.6v2.4c-1.5,0.3-4.8,0.2-5.2,0.2c-3.6-0.3-4.8-3-4.8-8.7C238.1,27.4,240.6,26,244.4,26z"/>
		<path style="fill:#F1F1F1;" d="M103.8,20.9L103.8,20.9c0,0-0.1,0-0.2,0c0,0,0,0,0,0c0,0,0,0,0,0c-6.5,0-10.7,0.3-10.7,0.4v8.5v1.4
			v24.4h6.3v-8c1.5,0.3,2.6,0.2,4.1,0.2c7.8,0,12.4-4.5,12.4-13C115.7,22.5,107.5,21,103.8,20.9z M103,42.8c-1.5,0-2.6-0.1-3.7-0.3
			c0,0,0-13.6,0-13.6v-2.4c1.5-0.3,4.8-0.2,5.2-0.2c3.6,0.3,4.8,3,4.8,8.7C109.3,41.4,106.8,42.8,103,42.8z"/>
		<path style="fill:#F1F1F1;" d="M265.1,39.5"/>
		<path style="fill:#F1F1F1;" d="M296.3,21.1c-1-0.2-1.8-0.3-2.9-0.3c-6.7,0-11.7,0.3-11.7,0.4v2.4v23.8v0.4h5.9v-0.4V27.2
			c1-0.4,2-0.8,4.7-1c1.6,0,3.1,0.4,4.1,0.8V21.1z"/>
	</g>
	<g>
		<path style="fill:#F1F1F1;" d="M98.9,63.3c5.3,0,8,2.8,8,8.5c0,5.6-2.7,8.5-8,8.5h-5.3v-17H98.9z M105,71.8c0-4.7-1.9-6.8-6.3-6.8
			h-3.4v13.5h3.4C103.1,78.5,105,76.5,105,71.8z"/>
		<path style="fill:#F1F1F1;" d="M121.3,70.9h7.8v1.8h-7.8v5.9h8.9v1.7h-10.7v-17h10.7V65h-8.9V70.9z"/>
		<path style="fill:#F1F1F1;" d="M153.5,75.9c0,2.8-2.2,4.5-6,4.5c-2.2,0-3.8-0.6-5-1.2v-2c1,0.7,2.6,1.3,4.9,1.3
			c2,0,4.3-0.5,4.3-2.7c0-5-9.4-2.5-9.4-8.1c0-2.3,1.5-4.7,5.8-4.7c1.7,0,3.2,0.5,4.2,1V66c-0.9-0.5-2.3-1.1-4.1-1.1
			c-2.7,0-4.2,1-4.2,2.9C144.1,71.5,153.5,69.5,153.5,75.9z"/>
		<path style="fill:#F1F1F1;" d="M168.2,63.3v17h-1.8v-17H168.2z"/>
		<path style="fill:#F1F1F1;" d="M188.8,71h5.9v8.1c-1.9,0.9-3.8,1.3-5.9,1.3c-5.2,0-7.9-2.9-7.9-8.7c0-5.8,2.6-8.7,7.9-8.7
			c1.9,0,3.7,0.4,5.3,1.1v1.8c-1.6-0.7-3.3-1.1-5.1-1.1c-4.3,0-6.2,2.2-6.2,6.9c0,4.8,1.9,6.9,6.2,6.9c1.3,0,2.6-0.2,3.9-0.6v-5.3
			h-4.1V71z"/>
		<path style="fill:#F1F1F1;" d="M222,63.3v17h-2.1L209.8,66v14.3h-1.8v-17h2.1l10.1,14.3V63.3H222z"/>
		<path style="fill:#F1F1F1;" d="M237.3,70.9h7.8v1.8h-7.8v5.9h8.9v1.7h-10.7v-17h10.7V65h-8.9V70.9z"/>
		<path style="fill:#F1F1F1;" d="M271.6,80.3h-2.2l-4.4-6.8h-4.3v6.8h-1.8v-17h6.2c3.7,0,5.7,1.7,5.7,4.9c0,3.9-3.1,4.8-3.9,4.9
			L271.6,80.3z M269,68.4c0-1.6-0.5-3.3-4-3.3h-4.3v6.7h4.3C268.6,71.7,269,69.9,269,68.4z"/>
		<path style="fill:#F1F1F1;" d="M289.1,63.3c5.3,0,8,2.8,8,8.5c0,5.6-2.7,8.5-8,8.5h-5.3v-17H289.1z M295.2,71.8
			c0-4.7-1.9-6.8-6.3-6.8h-3.4v13.5h3.4C293.3,78.5,295.2,76.5,295.2,71.8z"/>
	</g>
</g>
</svg>
